<mxfile host="app.diagrams.net" modified="2022-06-06T04:41:26.760Z" agent="5.0 (X11)" etag="GQo0LK_MD5eP1OgabdCo" version="18.2.0" type="github">
  <diagram id="y2X3IjlOPd7M8x1A_rQA" name="第 1 页">
    <mxGraphModel dx="593" dy="330" grid="1" gridSize="10" guides="1" tooltips="1" connect="1" arrows="1" fold="1" page="1" pageScale="1" pageWidth="827" pageHeight="1169" math="0" shadow="0">
      <root>
        <mxCell id="0" />
        <mxCell id="1" parent="0" />
        <mxCell id="C5AmL9Q4sHBFuRaPRofv-1" value="&lt;div style=&quot;font-size: 30px;&quot;&gt;((15/(7-(1+1)))*3)-(2+(1+1))&lt;/div&gt;" style="text;html=1;align=center;verticalAlign=middle;resizable=0;points=[];autosize=1;strokeColor=none;fillColor=none;fontSize=30;" vertex="1" parent="1">
          <mxGeometry x="34" y="80" width="380" height="40" as="geometry" />
        </mxCell>
        <mxCell id="C5AmL9Q4sHBFuRaPRofv-2" value="1" style="ellipse;whiteSpace=wrap;html=1;aspect=fixed;fontSize=12;" vertex="1" parent="1">
          <mxGeometry x="170" y="120" width="20" height="20" as="geometry" />
        </mxCell>
        <mxCell id="C5AmL9Q4sHBFuRaPRofv-3" value="2" style="ellipse;whiteSpace=wrap;html=1;aspect=fixed;fontSize=12;" vertex="1" parent="1">
          <mxGeometry x="130" y="120" width="20" height="20" as="geometry" />
        </mxCell>
        <mxCell id="C5AmL9Q4sHBFuRaPRofv-4" value="3" style="ellipse;whiteSpace=wrap;html=1;aspect=fixed;fontSize=12;" vertex="1" parent="1">
          <mxGeometry x="80" y="120" width="20" height="20" as="geometry" />
        </mxCell>
        <mxCell id="C5AmL9Q4sHBFuRaPRofv-5" value="4" style="ellipse;whiteSpace=wrap;html=1;aspect=fixed;fontSize=12;" vertex="1" parent="1">
          <mxGeometry x="230" y="120" width="20" height="20" as="geometry" />
        </mxCell>
        <mxCell id="C5AmL9Q4sHBFuRaPRofv-6" value="5" style="ellipse;whiteSpace=wrap;html=1;aspect=fixed;fontSize=12;" vertex="1" parent="1">
          <mxGeometry x="350" y="120" width="20" height="20" as="geometry" />
        </mxCell>
        <mxCell id="C5AmL9Q4sHBFuRaPRofv-7" value="6" style="ellipse;whiteSpace=wrap;html=1;aspect=fixed;fontSize=12;" vertex="1" parent="1">
          <mxGeometry x="310" y="120" width="20" height="20" as="geometry" />
        </mxCell>
        <mxCell id="C5AmL9Q4sHBFuRaPRofv-8" value="7" style="ellipse;whiteSpace=wrap;html=1;aspect=fixed;fontSize=12;" vertex="1" parent="1">
          <mxGeometry x="270" y="120" width="20" height="20" as="geometry" />
        </mxCell>
      </root>
    </mxGraphModel>
  </diagram>
</mxfile>
